<?xml version="1.0"?>
<svg xmlns:rdf="http://www.w3.org/1999/02/22-rdf-syntax-ns#" xmlns="http://www.w3.org/2000/svg" xmlns:cc="http://web.resource.org/cc/" xmlns:xlink="http://www.w3.org/1999/xlink" xmlns:dc="http://purl.org/dc/elements/1.1/" xmlns:svg="http://www.w3.org/2000/svg" id="svg2" viewBox="0 0 250 350" version="1.0">
  <defs id="defs4">
    <linearGradient id="linearGradient3267">
      <stop id="stop3269" stop-color="#fff" offset="0"/>
      <stop id="stop3271" stop-color="#fff" stop-opacity="0" offset="1"/>
    </linearGradient>
    <linearGradient id="linearGradient3171">
      <stop id="stop3173" stop-color="#424242" offset="0"/>
      <stop id="stop3175" stop-color="#fff" offset="1"/>
    </linearGradient>
    <filter id="filter3313" y="-.9222" width="1.3364" height="2.8444" x="-.16818">
      <feGaussianBlur id="feGaussianBlur3315" stdDeviation="14.513593"/>
    </filter>
    <filter id="filter3481" y="-.062801" width="1.4517" height="1.1256" x="-.22586">
      <feGaussianBlur id="feGaussianBlur3483" stdDeviation="3.400586"/>
    </filter>
    <filter id="filter3276">
      <feGaussianBlur id="feGaussianBlur3278" stdDeviation="2.5306767"/>
    </filter>
    <filter id="filter3316">
      <feGaussianBlur id="feGaussianBlur3318" stdDeviation="0.74594375"/>
    </filter>
    <filter id="filter3352">
      <feGaussianBlur id="feGaussianBlur3354" stdDeviation="0.58694296"/>
    </filter>
    <filter id="filter3357" y="-.2843" width="1.1159" height="1.5686" x="-.057938">
      <feGaussianBlur id="feGaussianBlur3359" stdDeviation="6.4131559"/>
    </filter>
    <linearGradient id="linearGradient3413" x1="423.25" xlink:href="#linearGradient3171" gradientUnits="userSpaceOnUse" x2="393.47" y1="493.15" y2="445.6"/>
    <linearGradient id="linearGradient3415" x1="361.49" xlink:href="#linearGradient3171" gradientUnits="userSpaceOnUse" x2="361.49" y1="432.09" y2="472.3"/>
    <linearGradient id="linearGradient3421" x1="224.74" xlink:href="#linearGradient3171" gradientUnits="userSpaceOnUse" x2="301.77" y1="434.17" y2="467.21"/>
    <linearGradient id="linearGradient3430" x1="527.37" xlink:href="#linearGradient3267" gradientUnits="userSpaceOnUse" y1="419.86" gradientTransform="matrix(.99572 -.092370 .092370 .99572 -1.6189 42.678)" x2="551.65" y2="158.08"/>
    <linearGradient id="linearGradient3433" x1="389.48" xlink:href="#linearGradient3267" gradientUnits="userSpaceOnUse" y1="376.58" gradientTransform="matrix(.52793 0 0 .52793 375.17 76.812)" x2="356" y2="501.54"/>
    <linearGradient id="linearGradient3436" x1="277.62" gradientUnits="userSpaceOnUse" y1="446.13" gradientTransform="matrix(.52793 0 0 .52793 375.17 76.812)" x2="381.99" y2="506.39">
      <stop id="stop3251" stop-color="#0d0700" offset="0"/>
      <stop id="stop3253" stop-color="#512f00" offset="1"/>
    </linearGradient>
    <linearGradient id="linearGradient3440" x1="519.36" xlink:href="#linearGradient3171" gradientUnits="userSpaceOnUse" y1="582.74" gradientTransform="matrix(.52793 0 0 .52793 375.17 76.812)" x2="395.77" y2="511.39"/>
    <linearGradient id="linearGradient3444" x1="198.77" xlink:href="#linearGradient3171" gradientUnits="userSpaceOnUse" y1="446.76" gradientTransform="matrix(.55922 -.066152 .062017 .52427 338.12 92.899)" x2="221.67" y2="537.93"/>
  </defs>
  <g id="layer1" transform="translate(-404.54 -206.77)">
    <g id="g3505" transform="translate(-30.744 48.337)">
      <path id="path3355" filter="url(#filter3357)" transform="matrix(.75095 0 0 1.7555 304.48 -413.98)" d="m479.7 471.31a132.83 27.069 0 1 1 -265.66 0 132.83 27.069 0 1 1 265.66 0z"/>
      <path id="path2431" transform="matrix(.79564 0 0 1.86 284.3 -468.42)" fill="url(#linearGradient3413)" d="m479.7 471.31a132.83 27.069 0 1 1 -265.66 0 132.83 27.069 0 1 1 265.66 0z"/>
      <path id="path2387" transform="matrix(.79564 0 0 1.86 284.3 -472.42)" fill="url(#linearGradient3415)" d="m479.7 471.31a132.83 27.069 0 1 1 -265.66 0 132.83 27.069 0 1 1 265.66 0z"/>
      <path id="path3275" filter="url(#filter3313)" transform="matrix(.61779 0 0 1.5838 342.95 -588.66)" fill="#5b5b5b" d="m491.66 631.84a103.56 18.886 0 1 1 -207.12 0 103.56 18.886 0 1 1 207.12 0z"/>
      <path id="path3167" fill-rule="evenodd" fill="#fff" d="m489.22 318.58c-13.42 1.92-27.03 15.09-24.32 40.32 3.43 31.98 28.15 42.87 46.32 32.35l-2.16-13.88c-1.94 5.85-5.15 9.73-9.14 10.2-7.92 0.94-15.97-11.84-17.94-28.51s2.87-30.96 10.8-31.89c3.19-0.38 6.4 1.47 9.23 4.92l-1.94-12.48c-3.36-1.21-7.1-1.56-10.85-1.03z"/>
      <path id="path3169" filter="url(#filter3352)" fill="url(#linearGradient3444)" d="m482.5 326.7c-8.74 1.04-14.33 14.6-12.48 30.27s10.45 27.54 19.2 26.5c0.62-0.07 1.22-0.22 1.81-0.41-4.34-5.03-7.84-13.78-9.05-24-1.67-14.13 1.56-26.53 7.4-30.56-2.2-1.4-4.53-2.07-6.88-1.8z"/>
      <path id="path3163" d="m248.66 528.6a23.292 63.582 0 1 1 -46.58 0 23.292 63.582 0 1 1 46.58 0z" transform="matrix(.61637 -.072912 .056184 .47496 327.73 122.73)" fill="none"/>
      <path id="path3159" fill-rule="evenodd" fill="url(#linearGradient3440)" d="m488.83 315.99c-8.64 22.57-3.65 111.01 71.12 111.67 74.78 0.66 82.89-88.48 70.13-112-12.63-23.26-132.28-23.1-141.25 0.33z"/>
      <path id="path3161" filter="url(#filter3276)" transform="matrix(.52793 0 0 .52793 376.17 77.477)" fill="url(#linearGradient3421)" d="m476.55 461.56a130 38.716 0 1 1 -259.99 0 130 38.716 0 1 1 259.99 0z"/>
      <path id="path3244" fill="url(#linearGradient3436)" d="m559.12 315.67c-29.02 0-53.85 5.36-63.88 12.95 10.03 7.58 34.86 12.96 63.88 12.96s53.85-5.38 63.88-12.96c-10.03-7.59-34.86-12.95-63.88-12.95z"/>
      <path id="path3261" filter="url(#filter3316)" fill="url(#linearGradient3433)" d="m559.12 315.67c-29.02 0-53.85 5.36-63.88 12.95 4.42 3.34 11.72 6.26 20.99 8.48 11.75-2.81 26.66-4.49 42.89-4.49s31.14 1.68 42.89 4.49c9.27-2.22 16.57-5.14 20.99-8.48-10.03-7.59-34.86-12.95-63.88-12.95z"/>
      <path id="path3381" filter="url(#filter3481)" fill-rule="evenodd" fill="url(#linearGradient3430)" d="m563.72 294.56c-15.39-25.18-24.46-45.46-4.6-74.92 19.87-29.46 4.16-55.03 4.16-55.03s36.38 29.38 12.4 61.34c-20.67 27.55-11.01 68.02-11.96 68.61z"/>
    </g>
  </g>
  <metadata>
    <rdf:RDF>
      <cc:Work>
        <dc:format>image/svg+xml</dc:format>
        <dc:type rdf:resource="http://purl.org/dc/dcmitype/StillImage"/>
        <cc:license rdf:resource="http://creativecommons.org/licenses/publicdomain/"/>
        <dc:publisher>
          <cc:Agent rdf:about="http://openclipart.org/">
            <dc:title>Openclipart</dc:title>
          </cc:Agent>
        </dc:publisher>
        <dc:title>Cup of coffee</dc:title>
        <dc:date>2008-06-26T08:23:40</dc:date>
        <dc:description>A cup of freshley brewed coffee :-) Looks best on black or coloured background.</dc:description>
        <dc:source>http://openclipart.org/detail/17465/cup-of-coffee-by-lemmling</dc:source>
        <dc:creator>
          <cc:Agent>
            <dc:title>lemmling</dc:title>
          </cc:Agent>
        </dc:creator>
        <dc:subject>
          <rdf:Bag>
            <rdf:li>clip art</rdf:li>
            <rdf:li>clipart</rdf:li>
            <rdf:li>coffe</rdf:li>
            <rdf:li>coffe cup</rdf:li>
            <rdf:li>cup</rdf:li>
            <rdf:li>drink</rdf:li>
            <rdf:li>food</rdf:li>
            <rdf:li>how i did it</rdf:li>
            <rdf:li>image</rdf:li>
            <rdf:li>media</rdf:li>
            <rdf:li>png</rdf:li>
            <rdf:li>public domain</rdf:li>
            <rdf:li>svg</rdf:li>
          </rdf:Bag>
        </dc:subject>
      </cc:Work>
      <cc:License rdf:about="http://creativecommons.org/licenses/publicdomain/">
        <cc:permits rdf:resource="http://creativecommons.org/ns#Reproduction"/>
        <cc:permits rdf:resource="http://creativecommons.org/ns#Distribution"/>
        <cc:permits rdf:resource="http://creativecommons.org/ns#DerivativeWorks"/>
      </cc:License>
    </rdf:RDF>
  </metadata>
</svg>
